<svg width="500" height="691" xmlns="http://www.w3.org/2000/svg"><g fill="none" fill-rule="evenodd"><path d="M114.105 569.762l22.215 18.641-27.64 32.94a9 9 0 01-12.68 1.11l-15.32-12.856 33.425-39.835zm258.79 0l-22.215 18.641 27.64 32.94a9 9 0 0012.68 1.11l15.32-12.856-33.425-39.835z" fill="#D8D8D8"/><path d="M284.317 187.53l138.996 70.821c19.424-38.35 4.151-85.21-34.175-104.738-38.383-19.557-85.352-4.296-104.91 34.087l.089-.17z" fill="#99D5E9"/><path fill="#D8D8D8" d="M347.053 218.589l14.256 7.264-11.804 23.166-14.256-7.264z"/><path d="M76.446 258.351l138.996-70.822c-19.61-38.257-66.497-53.444-104.822-33.916-38.383 19.557-53.645 66.527-34.088 104.91l-.086-.172z" fill="#99D5E9"/><path fill="#D8D8D8" d="M138.449 225.852l14.256-7.263 11.804 23.166-14.256 7.264zM121 138.68c0-41.38 33.209-75.002 74.428-75.67l1.251-.01h107.642l1.251.01c40.807.662 73.763 33.622 74.418 74.43l.01 1.24-.004.372.004-.001v8.95l-6.207-.002.003-.372c0-41.425-33.245-75.085-74.51-75.754l-1.253-.01h-93.515c-41.425 0-75.084 33.246-75.753 74.51l-.01 1.627H121v-9.32z"/><path d="M95.014 155.623l25.825-12.673a4.67 4.67 0 016.186 2.009 4.395 4.395 0 01-1.948 6l-25.825 12.674a4.67 4.67 0 01-6.187-2.01 4.395 4.395 0 011.949-6zm285.04-13.423l25.825 12.674a4.395 4.395 0 011.949 6 4.67 4.67 0 01-6.187 2.01l-25.825-12.674a4.395 4.395 0 01-1.949-6 4.67 4.67 0 016.187-2.01z" fill="#D8D8D8"/><path d="M100.572 139.484l3.595-1.754a5 5 0 016.686 2.303l3.069 6.291-12.583 6.137-3.069-6.291a5 5 0 012.302-6.686zm297.957-1.438l-1.798-.877a6 6 0 00-8.023 2.762l-2.63 5.393 12.583 6.137 2.63-5.392a6 6 0 00-2.762-8.023z" fill="#C3C3C3"/><g transform="translate(225 159)" fill="#D8D8D8"><path d="M23.024 12h3.953v56h-3.953z"/><rect width="50" height="13" rx="4"/></g><g transform="translate(41 211)"><circle fill="#C9EFFC" cx="209" cy="209" r="209"/><circle fill="#99D5E9" cx="209" cy="209" r="176"/><path d="M208.5 291c45.011 0 81.5-36.489 81.5-81.5S253.511 128 208.5 128 127 164.489 127 209.5s36.489 81.5 81.5 81.5z" stroke="#F5F5F5" stroke-width="3" stroke-linecap="round" stroke-linejoin="round" stroke-dasharray="0,10"/></g><g fill="#F5F5F5" font-family="Aspira-Bold, Aspira" font-size="46" font-weight="bold"><text transform="translate(93.25 258)"><tspan x="220.75" y="63">1</tspan></text><text transform="translate(93.25 258)"><tspan x="265" y="114">2</tspan></text><text transform="translate(93.25 258)"><tspan x="290.5" y="175">3</tspan></text><text transform="translate(93.25 258)"><tspan x="263" y="242">4</tspan></text><text transform="translate(93.25 258)"><tspan x="207.5" y="296">5</tspan></text><text transform="translate(93.25 258)"><tspan x="143.75" y="319">6</tspan></text><text transform="translate(93.25 258)"><tspan x="77.5" y="296">7</tspan></text><text transform="translate(93.25 258)"><tspan x="26.25" y="242">8</tspan></text><text transform="translate(93.25 258)"><tspan x="0" y="175">9</tspan></text><text transform="translate(93.25 258)"><tspan x="12.75" y="114">10</tspan></text><text transform="translate(93.25 258)"><tspan x="56.75" y="63">11</tspan></text><text transform="translate(93.25 258)"><tspan x="132" y="36">12</tspan></text></g><circle cx="148.799" cy="83.14" r="15.5" transform="translate(102.701 337.36)" fill="#FFF"/></g></svg>