<?xml version="1.0" encoding="UTF-8"?>
<svg width="500px" height="691px" viewBox="0 0 500 691" version="1.1" xmlns="http://www.w3.org/2000/svg" xmlns:xlink="http://www.w3.org/1999/xlink">
    <title>Alarm clock @2x</title>
    <g id="Page-1" stroke="none" stroke-width="1" fill="none" fill-rule="evenodd">
        <g id="Alarm-Clock-" transform="translate(41.000000, 63.000000)">
            <g id="Feet-" transform="translate(39.679878, 506.762424)" fill="#D8D8D8">
                <path d="M13.3201223,3.23757586 L42.3201223,3.23757586 L42.3201223,46.2375759 C42.3201223,51.2081386 38.290685,55.2375759 33.3201223,55.2375759 L13.3201223,55.2375759 L13.3201223,55.2375759 L13.3201223,3.23757586 Z" id="Rectangle" transform="translate(27.820122, 29.237576) rotate(40.000000) translate(-27.820122, -29.237576) "></path>
                <path d="M283.320122,3.23757586 L312.320122,3.23757586 L312.320122,46.2375759 C312.320122,51.2081386 308.290685,55.2375759 303.320122,55.2375759 L283.320122,55.2375759 L283.320122,55.2375759 L283.320122,3.23757586 Z" id="Rectangle-Copy-2" transform="translate(297.820122, 29.237576) scale(-1, 1) rotate(40.000000) translate(-297.820122, -29.237576) "></path>
            </g>
            <g id="Bells-" transform="translate(0.121083, 0.000000)">
                <g id="Right-bell-" transform="translate(324.636752, 136.499885) rotate(27.000000) translate(-324.636752, -136.499885) translate(246.636867, 84.999885)">
                    <path d="M116.807885,-38.9988852 L116.80759,116.999883 C73.8177989,116.896143 38.9998852,82.0142089 38.9998852,39.0001148 C38.9998852,-4.07809569 73.9216747,-38.9998852 116.999885,-38.9998852 L116.807885,-38.9988852 Z" id="Combined-Shape-Copy" fill="#99D5E9" transform="translate(77.999885, 39.000000) scale(-1, 1) rotate(90.000000) translate(-77.999885, -39.000000) "></path>
                    <rect id="Rectangle" fill="#D8D8D8" x="69.9998852" y="77" width="16" height="26"></rect>
                </g>
                <g id="Left-bell-" transform="translate(92.878917, 136.499885) rotate(-27.000000) translate(-92.878917, -136.499885) translate(14.879032, 84.999885)">
                    <path d="M116.807885,-38.9988852 L116.80759,116.999883 C73.8177989,116.896143 38.9998852,82.0142089 38.9998852,39.0001148 C38.9998852,-4.07809569 73.9216747,-38.9998852 116.999885,-38.9998852 L116.807885,-38.9988852 Z" id="Combined-Shape-Copy" fill="#99D5E9" transform="translate(77.999885, 39.000000) scale(-1, 1) rotate(90.000000) translate(-77.999885, -39.000000) "></path>
                    <rect id="Rectangle" fill="#D8D8D8" x="69.9998852" y="77" width="16" height="26"></rect>
                </g>
                <g id="Bell-holder-" transform="translate(49.825315, 0.000000)">
                    <path d="M30.0536028,75.6793949 C30.0536028,34.300785 63.262154,0.67844776 104.481501,0.0101388767 L105.732998,0 L213.374208,0 L214.625705,0.0101388767 C255.432858,0.671764672 288.388631,33.6316337 289.043665,74.4403887 L289.053603,75.6793949 L289.049663,76.0519943 L289.053603,76.051 L289.053603,85.0001836 L282.846603,84.9993119 L282.85001,84.6267126 C282.85001,43.2020753 249.604519,9.54233831 208.339323,8.87328603 L207.086433,8.86313588 L113.571671,8.86313588 C72.1470332,8.86313588 38.4872963,42.1086264 37.818244,83.3738233 L37.808995,85.0001836 L37.808995,85.0001836 L30.0536028,85.0001836 L30.0536028,75.6793949 Z" id="Bracket-" fill="#D8D8D8"></path>
                    <path d="M4.64734153,85.5444328 L33.4111403,85.9770839 C35.9351764,86.0150492 37.9723612,88.0515496 38.0111746,90.5755728 C38.0484972,93.0026438 36.1112234,95.0004294 33.6841524,95.037752 C33.639595,95.0384372 33.5950297,95.0384447 33.5504721,95.0377745 L4.78667336,94.6051234 C2.26263726,94.5671581 0.225452453,92.5306577 0.186638992,90.0066345 C0.149316425,87.5795635 2.08659028,85.5817778 4.51366126,85.5444553 C4.55821866,85.5437701 4.6027839,85.5437626 4.64734153,85.5444328 Z" id="Right-arm-" fill="#D8D8D8" transform="translate(19.098907, 90.291104) rotate(-27.000000) translate(-19.098907, -90.291104) "></path>
                    <path d="M285.58886,85.2279424 L314.352658,84.7952913 C316.779742,84.7587843 318.776876,86.6967294 318.813383,89.1238128 C318.814054,89.1683704 318.814046,89.2129356 318.813361,89.257493 C318.774548,91.7815162 316.737363,93.8180166 314.213327,93.8559819 L285.449528,94.288633 C283.022445,94.32514 281.02531,92.387195 280.988803,89.9601116 C280.988133,89.915554 280.98814,89.8709887 280.988825,89.8264313 C281.027639,87.3024081 283.064824,85.2659077 285.58886,85.2279424 Z" id="Left-arm-" fill="#D8D8D8" transform="translate(299.901093, 89.541962) rotate(27.000000) translate(-299.901093, -89.541962) "></path>
                    <g id="Nuts-&amp;-Bolts" transform="translate(5.131818, 71.538638)" fill="#C3C3C3">
                        <path d="M6.9217852,3.46136231 L10.9217852,3.46136231 C13.683209,3.46136231 15.9217852,5.69993856 15.9217852,8.46136231 L15.9217852,15.4613623 L15.9217852,15.4613623 L1.9217852,15.4613623 L1.9217852,8.46136231 C1.9217852,5.69993856 4.16036146,3.46136231 6.9217852,3.46136231 Z" id="Nuts-&amp;-Bolts-(Left)" transform="translate(8.921785, 9.461362) rotate(-26.000000) translate(-8.921785, -9.461362) "></path>
                        <path d="M297.921785,2.46136231 L299.921785,2.46136231 C303.235494,2.46136231 305.921785,5.14765381 305.921785,8.46136231 L305.921785,14.4613623 L305.921785,14.4613623 L291.921785,14.4613623 L291.921785,8.46136231 C291.921785,5.14765381 294.608077,2.46136231 297.921785,2.46136231 Z" id="Nuts-&amp;-Bolts-(right)" transform="translate(298.921785, 8.461362) scale(-1, 1) rotate(-26.000000) translate(-298.921785, -8.461362) "></path>
                    </g>
                </g>
            </g>
            <g id="Ringer-" transform="translate(184.000000, 96.000000)" fill="#D8D8D8">
                <rect id="Rectangle" x="23.0235294" y="12" width="3.95294118" height="56"></rect>
                <rect id="Rectangle" x="0" y="0" width="50" height="13" rx="4"></rect>
            </g>
            <g id="Clock-Face-" transform="translate(0.000000, 148.000000)">
                <circle id="Light-blue-" fill="#C9EFFC" cx="209" cy="209" r="209"></circle>
                <circle id="Dark-blue-" fill="#99D5E9" cx="209" cy="209" r="176"></circle>
                <path d="M208.5,291 C253.511207,291 290,254.511207 290,209.5 C290,164.488793 253.511207,128 208.5,128 C163.488793,128 127,164.488793 127,209.5 C127,254.511207 163.488793,291 208.5,291 Z" id="Pattern-" stroke="#F5F5F5" stroke-width="3" stroke-linecap="round" stroke-linejoin="round" stroke-dasharray="0,10"></path>
            </g>
            <g id="Numbers-" transform="translate(52.250000, 195.000000)" fill="#F5F5F5" font-family="Aspira-Bold, Aspira" font-size="46" font-weight="bold">
                <text id="1">
                    <tspan x="220.75" y="63">1</tspan>
                </text>
                <text id="2">
                    <tspan x="265" y="114">2</tspan>
                </text>
                <text id="3">
                    <tspan x="290.5" y="175">3</tspan>
                </text>
                <text id="4">
                    <tspan x="263" y="242">4</tspan>
                </text>
                <text id="5">
                    <tspan x="207.5" y="296">5</tspan>
                </text>
                <text id="6">
                    <tspan x="143.75" y="319">6</tspan>
                </text>
                <text id="7">
                    <tspan x="77.5" y="296">7</tspan>
                </text>
                <text id="8">
                    <tspan x="26.25" y="242">8</tspan>
                </text>
                <text id="9">
                    <tspan x="0" y="175">9</tspan>
                </text>
                <text id="10">
                    <tspan x="12.75" y="114">10</tspan>
                </text>
                <text id="11">
                    <tspan x="56.75" y="63">11</tspan>
                </text>
                <text id="12">
                    <tspan x="132" y="36">12</tspan>
                </text>
            </g>
            <g id="Clock-hands-" transform="translate(61.701021, 274.360002)" fill="#FFFFFF">
                <circle id="Oval" cx="148.798979" cy="83.1399983" r="15.5"></circle>
            </g>
        </g>
    </g>
</svg>